<?xml version="1.0" encoding="utf-8"?>
<!-- Generator: Adobe Illustrator 17.0.0, SVG Export Plug-In . SVG Version: 6.00 Build 0)  -->
<!DOCTYPE svg PUBLIC "-//W3C//DTD SVG 1.1//EN" "http://www.w3.org/Graphics/SVG/1.1/DTD/svg11.dtd">
<svg version="1.1" id="Layer_1" xmlns="http://www.w3.org/2000/svg" xmlns:xlink="http://www.w3.org/1999/xlink" x="0px" y="0px"
	 width="162.428px" height="60.484px" viewBox="0 0 162.428 60.484" enable-background="new 0 0 162.428 60.484"
	 xml:space="preserve">
<circle fill="#6D6E70" cx="50.267" cy="10.995" r="8.708"/>
<rect x="22.041" fill="#0888C3" width="17.143" height="18.367"/>
<polygon fill="#ADC836" points="22.041,22.04 0,22.04 0,39.184 22.041,39.184 22.041,60 39.184,60 39.184,39.184 39.184,22.04 "/>
<rect x="42.857" y="22.041" fill="#0888C3" width="17.143" height="17.143"/>
<polygon opacity="0.2" fill="#FFFFFF" points="43.146,22.5 43.146,34.742 55.687,22.5 "/>
<polygon opacity="0.2" fill="#FFFFFF" points="39.146,19.5 39.146,5.867 25.937,19.5 "/>
<g>
	<g>
		<path fill="#6D6E70" d="M77.903,19.368h2.456v19.815h-2.456V19.368z"/>
		<path fill="#6D6E70" d="M91.968,39.183l-0.195-1.703h-0.083c-0.753,1.061-2.205,2.01-4.13,2.01c-2.735,0-4.131-1.926-4.131-3.879
			c0-3.265,2.903-5.051,8.122-5.023v-0.279c0-1.116-0.307-3.125-3.07-3.125c-1.256,0-2.568,0.391-3.517,1.004l-0.558-1.619
			c1.116-0.726,2.735-1.2,4.438-1.2c4.13,0,5.135,2.818,5.135,5.526v5.051c0,1.172,0.056,2.316,0.223,3.237H91.968z M91.605,32.29
			c-2.679-0.056-5.721,0.419-5.721,3.042c0,1.591,1.061,2.345,2.316,2.345c1.758,0,2.875-1.117,3.265-2.261
			c0.084-0.251,0.14-0.53,0.14-0.781V32.29z"/>
		<path fill="#6D6E70" d="M97.828,39.183c0.056-0.921,0.111-2.289,0.111-3.489V19.368h2.428v8.484h0.056
			c0.865-1.507,2.428-2.484,4.605-2.484c3.349,0,5.721,2.791,5.693,6.893c0,4.828-3.042,7.229-6.056,7.229
			c-1.954,0-3.517-0.754-4.521-2.54h-0.084l-0.111,2.233H97.828z M100.367,33.769c0,0.307,0.056,0.614,0.112,0.893
			c0.474,1.702,1.897,2.875,3.684,2.875c2.568,0,4.103-2.093,4.103-5.191c0-2.707-1.396-5.023-4.019-5.023
			c-1.675,0-3.237,1.144-3.74,3.014c-0.056,0.279-0.14,0.614-0.14,1.005V33.769z"/>
		<path fill="#6D6E70" d="M126.041,32.318c0,4.996-3.461,7.172-6.726,7.172c-3.656,0-6.475-2.679-6.475-6.949
			c0-4.521,2.958-7.172,6.698-7.172C123.417,25.369,126.041,28.187,126.041,32.318z M115.324,32.457
			c0,2.958,1.702,5.191,4.103,5.191c2.344,0,4.103-2.205,4.103-5.247c0-2.289-1.145-5.191-4.047-5.191S115.324,29.89,115.324,32.457
			z"/>
		<path fill="#6D6E70" d="M132.095,21.796v3.879h3.517v1.87h-3.517v7.284c0,1.674,0.475,2.623,1.842,2.623
			c0.642,0,1.117-0.083,1.423-0.167l0.112,1.842c-0.475,0.195-1.228,0.335-2.177,0.335c-1.145,0-2.065-0.363-2.651-1.033
			c-0.698-0.726-0.949-1.926-0.949-3.517v-7.368h-2.093v-1.87h2.093v-3.237L132.095,21.796z"/>
		<path fill="#6D6E70" d="M141.108,21.88c0.028,0.837-0.586,1.507-1.563,1.507c-0.865,0-1.479-0.67-1.479-1.507
			c0-0.865,0.642-1.535,1.535-1.535C140.521,20.345,141.108,21.015,141.108,21.88z M138.373,39.183V25.675h2.456v13.508H138.373z"/>
		<path fill="#6D6E70" d="M144.567,36.671c0.726,0.475,2.009,0.977,3.237,0.977c1.786,0,2.623-0.893,2.623-2.009
			c0-1.172-0.698-1.814-2.512-2.484c-2.428-0.865-3.572-2.205-3.572-3.823c0-2.177,1.758-3.963,4.661-3.963
			c1.368,0,2.568,0.391,3.321,0.837l-0.614,1.786c-0.53-0.335-1.507-0.781-2.763-0.781c-1.451,0-2.261,0.837-2.261,1.842
			c0,1.117,0.81,1.619,2.568,2.289c2.344,0.893,3.544,2.065,3.544,4.075c0,2.372-1.842,4.047-5.052,4.047
			c-1.479,0-2.847-0.363-3.795-0.921L144.567,36.671z"/>
		<path fill="#6D6E70" d="M158.911,21.796v3.879h3.517v1.87h-3.517v7.284c0,1.674,0.475,2.623,1.842,2.623
			c0.642,0,1.117-0.083,1.423-0.167l0.112,1.842c-0.475,0.195-1.228,0.335-2.177,0.335c-1.145,0-2.065-0.363-2.651-1.033
			c-0.698-0.726-0.949-1.926-0.949-3.517v-7.368h-2.093v-1.87h2.093v-3.237L158.911,21.796z"/>
	</g>
</g>
<polygon opacity="0.2" fill="#FFFFFF" points="21.953,38.867 21.953,58.32 38.937,21.867 1.593,38.867 "/>
</svg>
